<svg xmlns="http://www.w3.org/2000/svg" viewBox="0 0 512 512" style="enable-background:new 0 0 512 512;"><path d="M432 240a79.66 79.66 0 0 0-16.672 1.76C408.128 169.024 346.592 112 272 112a16.01 16.01 0 0 0-16 16v256a16.01 16.01 0 0 0 16 16h160c44.128 0 80-35.872 80-80 0-44.096-35.872-80-80-80zm-224-96a16.01 16.01 0 0 0-16 16v224a16.01 16.01 0 0 0 16 16 16.01 16.01 0 0 0 16-16V160a16.01 16.01 0 0 0-16-16zm-64 64a16.01 16.01 0 0 0-16 16v160a16.01 16.01 0 0 0 16 16 16.01 16.01 0 0 0 16-16V224a16.01 16.01 0 0 0-16-16zm-64 0a16.01 16.01 0 0 0-16 16v160a16.01 16.01 0 0 0 16 16 16.01 16.01 0 0 0 16-16V224a16.01 16.01 0 0 0-16-16zm-64 48a16.01 16.01 0 0 0-16 16v96a16.01 16.01 0 0 0 16 16 16.01 16.01 0 0 0 16-16v-96a16.01 16.01 0 0 0-16-16z"/></svg>