<svg xmlns="http://www.w3.org/2000/svg" viewBox="0 0 350 350"><path d="M175 171.173c38.914 0 70.463-38.318 70.463-85.586S235.105 0 175 0s-70.465 38.318-70.465 85.587 31.549 85.586 70.465 85.586zM41.909 301.853c-.012-2.882-.024-.812 0 0zm266.176 2.251c.038-.789.013-5.474 0 0zm-.15-5.707c-1.305-82.342-12.059-105.805-94.352-120.657 0 0-11.584 14.761-38.584 14.761s-38.586-14.761-38.586-14.761C55.018 192.43 43.61 215.545 42.11 295.722l-.202 6.131.011 8.651S61.511 350 174.999 350s133.08-39.496 133.08-39.496l.005-6.399c-.022.47-.066-.441-.149-5.708z"/></svg>