<svg xmlns="http://www.w3.org/2000/svg" id="Capa_1" width="400" height="400" style="enable-background:new 0 0 400 400;"><g><g><path d="M199.996 0C89.713 0 0 89.72 0 200s89.713 200 199.996 200S400 310.28 400 200 310.279 0 199.996 0zm0 373.77C104.18 373.77 26.23 295.816 26.23 200S104.179 26.231 199.996 26.231 373.767 104.184 373.767 200s-77.955 173.77-173.771 173.77zm72.41-239.244L169.275 237.652l-41.689-41.68a13.12 13.12 0 0 0-18.545.003c-5.125 5.125-5.125 13.425 0 18.548l50.963 50.955c2.561 2.558 5.916 3.838 9.271 3.838s6.719-1.28 9.279-3.842c.008-.011.014-.022.027-.035L290.95 153.071a13.11 13.11 0 1 0-18.544-18.545z"/></g></g></svg>