<svg xmlns="http://www.w3.org/2000/svg" viewBox="0 0 293.709 293.709"><path d="M251.742 58.307v-5.58c0-3.078-.386-9.894-3.878-13.168-1.757-1.648-4.297-2.904-7.93-2.904h-19.668s-10.48 0-10.48 9.834v10.49c0 11.166-20.51 10.878-20.51 10.878l-84.47.044s-20.897-.462-20.897-9.59v-13.36s.658-8.5-10.492-8.5H52.45s-10.514 0-10.514 9.16v12.706s.375 5.46-8.126 8.246c-6.478 2.12-20.64.11-27.49 5.972C2.768 75.57 0 80.65 0 89.097v147.84s.647 20.32 20.973 20.32H271.41s22.3-1.305 22.3-19.662V88.45s-.68-20.31-21.647-20.31c0-.006-20.32-1.338-20.32-9.834zm-31.482-.68c0-5.776 4.068-10.487 9.834-10.487h.658c5.798 0 10.508 4.7 10.508 10.487v20.99c0 5.776-4.373 10.48-10.17 10.48h-.658c-5.798 0-10.17-4.7-10.17-10.48v-20.99zm-35.925 104.898h52.45c2.888 0 5.232 2.34 5.232 5.254a5.24 5.24 0 0 1-5.232 5.238h-52.45a5.26 5.26 0 0 1-5.254-5.238c0-2.916 2.366-5.254 5.254-5.254zm57.366 26.88c0 3.09-2.49 4.91-5.564 4.91h-51.144c-3.073 0-5.575-1.822-5.575-4.91a5.58 5.58 0 0 1 5.575-5.575h51.144c3.073-.001 5.564 2.5 5.564 5.575zM89.674 99.627c16.176 0 29.29 14.354 29.29 33.71 0 19.363-13.114 35.077-29.29 35.077s-29.278-15.713-29.278-35.077c-.001-19.357 13.102-33.71 29.278-33.71zm-36.9-42.555c0-5.776 4.036-9.834 9.834-9.834h.658c5.798 0 10.16 4.052 10.16 9.834v21.544c0 5.776-4.7 10.48-10.48 10.48h-.685c-5.765 0-9.486-4.7-9.486-10.48V57.072zM144.49 212.64c-2.567 3.688-8.322 3.198-8.322 3.198H44.133s-6.21.408-8.947-3.36c-1.474-2.034-.45-6.162.566-8.47l2.48-5.64s6.842-15.306 14.637-24.182c4.786-5.44 10.48-4.2 14.163-2.43 2.268 1.088 4.835 4.264 6.706 5.945 2.584 2.317 7.14 4.95 14.598 5.096H92.9c7.452-.14 12.01-2.78 14.588-5.096 1.876-1.68 4.368-4.95 6.614-6.075 3.383-1.692 8.523-2.73 13.184 2.567 7.8 8.877 13.968 24.465 13.968 24.465l2.535 5.532c1.05 2.278 2.126 6.384.7 8.45zm92.796 2.328h-53.44a5.06 5.06 0 0 1-5.075-5.069c0-2.812 2.268-5.096 5.075-5.096h53.44c2.78 0 5.075 2.284 5.075 5.096s-2.296 5.07-5.075 5.07z"/></svg>