<svg xmlns="http://www.w3.org/2000/svg" viewBox="0 0 295.82 295.82"><path d="M154.871 69.605c-10.441-3.48-22.621 0-31.322 6.96s-13.921 17.401-13.921 29.582c0 5.22 3.48 8.701 8.701 8.701s8.701-3.48 8.701-8.701 1.74-12.181 6.96-15.661 10.441-5.22 17.401-3.48c8.701 1.74 13.921 8.701 15.661 15.661 1.74 8.701 0 15.661-6.96 20.882-13.921 10.441-20.882 26.102-20.882 41.763 0 5.22 3.48 8.701 8.701 8.701s8.701-3.48 6.96-8.701c0-10.441 6.96-20.882 15.661-27.842 12.181-10.441 17.401-24.362 13.921-38.283-3.481-15.661-15.661-26.102-29.582-29.582zm-13.921003 140.949993c-1.73999 1.740036-1.73999 5.220016-1.73999 6.959961s0 3.480087 1.73999 5.220016 5.220001 3.47998 6.960007 3.47998 5.220001-1.739929 5.220001-3.47998c1.73999 0 3.479996-3.47998 3.479996-5.220016 0-3.47998-1.740005-5.219925-3.479996-6.959961-3.480011-3.480988-8.700012-3.480988-12.180008 0zM147.910004 0C66.124001 0 0 66.123962 0 147.910004s66.124001 147.910004 147.910004 147.910004 147.910004-66.123962 147.910004-147.910004S229.695999 0 147.910004 0zm0 278.419006c-71.345001 0-130.509005-59.164017-130.509005-130.509003S76.565002 17.401012 147.910004 17.401012 278.419006 76.56501 278.419006 147.910004 219.25499 278.419006 147.910004 278.419006z"/></svg>